<svg width="40" height="40" viewBox="0 0 40 40" fill="none" xmlns="http://www.w3.org/2000/svg">
<path d="M7.1 31.25C9.2 29.9167 11.275 28.9083 13.325 28.225C15.375 27.5417 17.6 27.2 20 27.2C22.4 27.2 24.6333 27.5417 26.7 28.225C28.7667 28.9083 30.85 29.9167 32.95 31.25C34.4167 29.45 35.4583 27.6333 36.075 25.8C36.6917 23.9667 37 22.0333 37 20C37 15.1667 35.375 11.125 32.125 7.875C28.875 4.625 24.8333 3 20 3C15.1667 3 11.125 4.625 7.875 7.875C4.625 11.125 3 15.1667 3 20C3 22.0333 3.31667 23.9667 3.95 25.8C4.58333 27.6333 5.63333 29.45 7.1 31.25ZM20 21.5C18.0667 21.5 16.4417 20.8417 15.125 19.525C13.8083 18.2083 13.15 16.5833 13.15 14.65C13.15 12.7167 13.8083 11.0917 15.125 9.775C16.4417 8.45833 18.0667 7.8 20 7.8C21.9333 7.8 23.5583 8.45833 24.875 9.775C26.1917 11.0917 26.85 12.7167 26.85 14.65C26.85 16.5833 26.1917 18.2083 24.875 19.525C23.5583 20.8417 21.9333 21.5 20 21.5ZM20 40C17.2 40 14.5833 39.475 12.15 38.425C9.71667 37.375 7.6 35.9417 5.8 34.125C4 32.3083 2.58333 30.1833 1.55 27.75C0.516667 25.3167 0 22.7167 0 19.95C0 17.2167 0.525 14.6333 1.575 12.2C2.625 9.76667 4.05833 7.65 5.875 5.85C7.69167 4.05 9.81667 2.625 12.25 1.575C14.6833 0.525 17.2833 0 20.05 0C22.7833 0 25.3667 0.525 27.8 1.575C30.2333 2.625 32.35 4.05 34.15 5.85C35.95 7.65 37.375 9.76667 38.425 12.2C39.475 14.6333 40 17.2333 40 20C40 22.7333 39.475 25.3167 38.425 27.75C37.375 30.1833 35.95 32.3083 34.15 34.125C32.35 35.9417 30.2333 37.375 27.8 38.425C25.3667 39.475 22.7667 40 20 40Z" fill="#00D2C5"/>
</svg>
