<svg width="40" height="40" viewBox="0 0 40 40" fill="none" xmlns="http://www.w3.org/2000/svg">
<path d="M34 40H6C2.7 40 0 37.3 0 34V6C0 2.7 2.7 0 6 0H34C37.3 0 40 2.7 40 6V34C40 37.3 37.3 40 34 40Z" fill="#F8D347"/>
<path d="M16.5004 20L18.8338 22.3333L23.5004 17.6667M27.7782 20C27.7782 24.2956 24.296 27.7778 20.0004 27.7778C15.7049 27.7778 12.2227 24.2956 12.2227 20C12.2227 15.7045 15.7049 12.2222 20.0004 12.2222C24.296 12.2222 27.7782 15.7045 27.7782 20Z" stroke="white" stroke-width="1.2" stroke-linecap="round" stroke-linejoin="round"/>
</svg>
