<svg width="574" height="532" viewBox="0 0 574 532" fill="none" xmlns="http://www.w3.org/2000/svg">
<path fill-rule="evenodd" clip-rule="evenodd" d="M715.416 370.118L151.884 531.022C138.438 534.864 124.402 527.033 120.56 513.587L1.47078 96.7743C-2.37082 83.181 5.4602 69.1443 18.9058 65.3027L582.438 -95.601C595.883 -99.4426 609.92 -91.6116 613.762 -78.166L732.851 338.647C736.693 352.092 728.862 366.277 715.416 370.118ZM22.8951 79.3393C17.1327 80.9646 13.8821 87.0225 15.5074 92.6371L134.597 509.598C136.222 515.36 142.132 518.611 147.895 516.985L711.427 356.082C717.189 354.457 720.588 348.399 718.962 342.636L599.873 -74.1767C598.248 -79.9391 592.19 -83.3374 586.427 -81.7121L22.8951 79.3393Z" fill="#DCE9F4"/>
<path fill-rule="evenodd" clip-rule="evenodd" d="M241.275 269.204C195.176 282.354 146.86 255.61 133.71 209.363C120.56 163.264 147.304 115.096 193.551 101.799C239.65 88.6486 287.817 115.54 300.967 161.639C314.265 207.738 287.374 256.053 241.275 269.204ZM197.54 115.835C159.124 126.769 136.813 166.958 147.747 205.374C158.681 243.79 198.87 266.101 237.286 255.167C275.702 244.233 298.012 204.044 286.931 165.628C275.997 127.212 235.808 104.901 197.54 115.835Z" fill="#DCE9F4"/>
<path fill-rule="evenodd" clip-rule="evenodd" d="M250.436 301.413C186.606 319.586 119.821 282.5 101.5 218.671C83.1785 154.693 120.412 87.9085 184.242 69.5871C248.219 51.4134 315.004 88.4995 333.325 152.329C351.499 216.306 314.413 283.091 250.436 301.413ZM188.231 83.6237C132.085 99.7288 99.4314 158.387 115.537 214.533C131.494 270.827 190.3 303.481 246.446 287.376C302.593 271.271 335.246 212.612 319.289 156.466C303.184 100.32 244.526 67.6663 188.231 83.6237Z" fill="#DCE9F4"/>
<path d="M295.944 170.65L219.407 192.518C215.566 193.7 211.429 191.335 210.394 187.494L188.527 110.81C187.345 106.968 189.561 102.979 193.55 101.797C197.392 100.762 201.381 102.979 202.563 106.82L222.362 176.56L291.954 156.613C295.944 155.431 299.933 157.795 300.967 161.637C302.149 165.479 299.933 169.468 295.944 170.65Z" fill="#DCE9F4"/>
<path d="M180.696 262.257C178.923 262.7 176.854 262.552 175.081 261.518C171.535 259.597 170.353 255.164 172.274 251.618L210.986 182.026C212.906 178.48 217.339 177.151 220.885 179.071C224.431 181.14 225.613 185.573 223.692 189.119L184.981 258.711C184.094 260.484 182.469 261.666 180.696 262.257Z" fill="#DCE9F4"/>
<path d="M436.901 398.042C433.059 399.224 429.07 397.008 427.888 393.167L413.556 343.078L390.063 349.727L404.395 399.815C405.429 403.657 403.213 407.794 399.371 408.828C395.53 409.863 391.54 407.646 390.358 403.805L375.14 350.318C373.367 344.556 376.765 338.35 382.675 336.725L412.965 328.007C418.875 326.382 424.933 329.78 426.558 335.69L441.924 389.029C442.959 393.019 440.742 397.008 436.901 398.042Z" fill="#DCE9F4"/>
<path d="M504.572 378.838C500.73 379.872 496.741 377.656 495.559 373.814L470.441 285.753L446.948 292.402L472.066 380.463C473.248 384.305 470.884 388.442 467.043 389.476C463.201 390.658 459.212 388.294 458.03 384.452L432.025 293.14C430.252 287.23 433.65 281.025 439.56 279.399L469.85 270.83C475.76 269.057 481.818 272.455 483.443 278.365L509.596 369.825C510.778 373.666 508.414 377.656 504.572 378.838Z" fill="#DCE9F4"/>
<path d="M572.243 359.479C568.401 360.513 564.412 358.297 563.23 354.455L543.431 285.159L519.938 291.956L539.737 361.104C540.919 365.094 538.555 369.083 534.714 370.118C530.872 371.3 526.883 369.083 525.701 365.094L505.015 292.547C503.242 286.637 506.788 280.579 512.551 278.806L542.84 270.236C548.75 268.463 554.808 271.861 556.581 277.771L577.267 350.466C578.449 354.308 576.085 358.297 572.243 359.479Z" fill="#DCE9F4"/>
<path d="M639.914 340.125C636.073 341.16 632.084 338.943 630.902 335.102L600.317 227.98L576.824 234.629L607.409 341.751C608.591 345.74 606.375 349.729 602.533 350.764C598.544 351.946 594.554 349.73 593.52 345.74L561.901 235.22C560.275 229.31 563.674 223.252 569.436 221.627L599.726 212.91C605.636 211.284 611.694 214.683 613.467 220.593L644.938 331.113C646.12 334.954 643.904 338.943 639.914 340.125Z" fill="#DCE9F4"/>
<path d="M658.975 334.658L380.459 414.297C376.47 415.331 372.48 413.115 371.446 409.273C370.264 405.432 372.48 401.294 376.47 400.26L654.985 320.621C658.827 319.587 662.816 321.803 663.998 325.644C665.033 329.486 662.816 333.623 658.975 334.658Z" fill="#DCE9F4"/>
<path d="M167.103 421.832C165.182 422.276 163.261 422.128 161.636 421.094C159.863 420.207 158.681 418.582 158.09 416.809C157.991 416.316 157.893 415.824 157.794 415.331C157.794 414.937 157.843 414.494 157.942 414.001C157.942 413.509 158.04 413.016 158.237 412.524C158.336 412.13 158.484 411.687 158.681 411.194C159.715 409.569 161.193 408.239 163.113 407.796C164.886 407.205 166.955 407.5 168.58 408.387C169.073 408.584 169.467 408.879 169.762 409.273C170.156 409.569 170.501 409.914 170.796 410.308C171.092 410.603 171.338 410.997 171.535 411.49C171.831 411.884 172.028 412.327 172.126 412.819C172.225 413.213 172.323 413.657 172.422 414.149C172.422 414.642 172.373 415.134 172.274 415.627C172.274 416.119 172.176 416.562 171.979 416.956C171.88 417.449 171.732 417.892 171.535 418.286C170.501 420.059 169.023 421.241 167.103 421.832Z" fill="#DCE9F4"/>
<path d="M296.535 384.893L195.619 413.705C191.777 414.739 187.788 412.523 186.606 408.681C185.572 404.692 187.788 400.703 191.63 399.669L292.545 370.857C296.387 369.675 300.376 371.891 301.558 375.88C302.593 379.722 300.376 383.711 296.535 384.893Z" fill="#DCE9F4"/>
<path d="M181.139 471.18C180.745 471.278 180.302 471.328 179.809 471.328C179.317 471.426 178.824 471.426 178.332 471.328C177.839 471.328 177.396 471.229 177.002 471.032C176.509 470.933 176.066 470.736 175.672 470.441C175.278 470.244 174.884 469.998 174.49 469.702C174.096 469.407 173.751 469.062 173.456 468.668C173.16 468.274 172.914 467.88 172.717 467.486C172.52 466.993 172.323 466.55 172.126 466.156C172.028 465.664 171.978 465.171 171.978 464.679C171.88 464.186 171.88 463.743 171.978 463.349C171.978 462.856 172.077 462.364 172.274 461.871C172.372 461.477 172.569 461.034 172.865 460.541C173.062 460.147 173.308 459.753 173.604 459.359C173.899 459.064 174.244 458.768 174.638 458.473C175.032 458.177 175.426 457.882 175.82 457.586C176.706 457.192 177.642 456.946 178.627 456.848C179.12 456.848 179.612 456.848 180.105 456.848C180.499 456.946 180.942 457.045 181.435 457.143C181.927 457.34 182.37 457.537 182.764 457.734C183.158 457.931 183.552 458.227 183.946 458.621C184.34 458.916 184.685 459.261 184.981 459.655C185.276 459.951 185.522 460.344 185.719 460.837C185.916 461.231 186.064 461.674 186.163 462.167C186.36 462.561 186.458 463.004 186.458 463.497C186.458 463.989 186.458 464.482 186.458 464.974C186.36 465.467 186.261 465.91 186.163 466.304C186.015 466.747 185.867 467.338 185.572 467.634C185.375 468.028 185.128 468.422 184.833 468.816C184.439 469.21 184.094 469.555 183.799 469.85C183.405 470.146 182.961 470.392 182.469 470.589C182.075 470.786 181.631 470.983 181.139 471.18Z" fill="#DCE9F4"/>
<path d="M310.571 434.245L209.803 463.057C205.814 464.091 201.824 461.875 200.79 458.033C199.608 454.044 201.824 450.054 205.666 449.02L306.582 420.208C310.423 419.026 314.56 421.242 315.595 425.232C316.629 429.073 314.413 433.063 310.571 434.245Z" fill="#DCE9F4"/>
<path d="M430.695 25.4104C430.203 25.5089 429.71 25.6073 429.218 25.7058C428.725 25.7058 428.233 25.7058 427.74 25.7058C427.346 25.6073 426.903 25.5089 426.41 25.4104C425.918 25.2134 425.474 25.0163 425.08 24.8193C423.455 23.7851 422.125 22.3075 421.682 20.3867C421.485 19.9927 421.387 19.5494 421.387 19.0569C421.387 18.5644 421.387 18.0719 421.387 17.5794C421.485 17.0869 421.584 16.6437 421.682 16.2497C421.879 15.7572 422.076 15.3139 422.273 14.9199C422.47 14.4274 422.717 14.0333 423.012 13.7378C423.406 13.3438 423.751 12.9991 424.046 12.7036C424.44 12.4081 424.884 12.1619 425.376 11.9648C427.445 10.7828 430.104 10.9306 432.173 11.9648C432.567 12.2604 432.961 12.5558 433.355 12.8513C433.749 13.1468 434.093 13.4915 434.389 13.8855C434.684 14.2795 434.931 14.6736 435.128 15.0676C435.325 15.5602 435.522 16.0034 435.719 16.3975C435.817 16.89 435.867 17.3825 435.867 17.875C435.965 18.269 435.965 18.7123 435.867 19.2048C435.867 19.6973 435.768 20.1898 435.571 20.6823C435.473 21.1749 435.276 21.618 434.98 22.012C434.783 22.406 434.537 22.8001 434.241 23.1941C433.946 23.4896 433.601 23.7851 433.207 24.0806C432.813 24.3761 432.419 24.6716 432.025 24.9671C431.582 25.1148 431.138 25.2626 430.695 25.4104Z" fill="#DCE9F4"/>
<path d="M559.979 -11.5299L459.212 17.282C455.37 18.3163 451.233 16.1 450.198 12.2584C449.016 8.41677 451.381 4.42746 455.222 3.24543L555.99 -25.5665C559.98 -26.6008 563.969 -24.3845 565.003 -20.5429C566.185 -16.7013 563.969 -12.5642 559.979 -11.5299Z" fill="#DCE9F4"/>
<path d="M444.732 74.7582C444.239 74.8567 443.796 74.9551 443.402 75.0536C442.909 75.0536 442.417 75.0536 441.924 75.0536C441.432 74.9551 440.988 74.8567 440.594 74.7582C440.102 74.5612 439.659 74.3641 439.265 74.1671C438.772 73.9701 438.378 73.6747 438.083 73.2807C437.689 72.9851 437.344 72.6403 437.048 72.2463C436.753 71.9508 436.507 71.5569 436.31 71.0643C436.014 70.6703 435.817 70.227 435.719 69.7345C435.275 67.9615 435.423 65.893 436.31 64.2677C436.605 63.8737 436.901 63.4796 437.196 63.0856C437.492 62.6916 437.836 62.3469 438.23 62.0514C438.624 61.7559 439.018 61.5096 439.412 61.3126C440.299 60.8201 441.235 60.5739 442.22 60.5739C442.614 60.4754 443.057 60.4754 443.549 60.5739C444.042 60.5739 444.534 60.6723 445.027 60.8693C445.421 60.9678 445.864 61.1649 446.357 61.4604C446.751 61.6574 447.145 61.9036 447.539 62.1991C447.834 62.4946 448.13 62.8393 448.425 63.2333C448.721 63.6273 449.016 64.0214 449.312 64.4154C449.509 64.9079 449.657 65.3512 449.755 65.7453C449.952 66.2378 450.051 66.7303 450.051 67.2228C450.051 67.6168 450.051 68.0599 450.051 68.5524C449.952 69.0449 449.854 69.5375 449.755 70.03C449.558 70.5225 449.361 70.9658 449.164 71.3598C448.13 72.9851 446.652 74.3149 444.732 74.7582Z" fill="#DCE9F4"/>
<path d="M574.164 37.8216L473.248 66.6336C469.407 67.6679 465.417 65.4515 464.235 61.6099C463.201 57.7683 465.417 53.779 469.259 52.597L570.174 23.785C574.016 22.7508 578.005 24.9671 579.187 28.8087C580.222 32.6503 578.005 36.6396 574.164 37.8216Z" fill="#DCE9F4"/>
<path d="M458.916 124.109C458.423 124.208 457.931 124.306 457.438 124.405C456.946 124.405 456.453 124.405 455.961 124.405C455.567 124.306 455.124 124.208 454.631 124.109C454.139 123.912 453.695 123.715 453.301 123.518C451.676 122.484 450.346 121.007 449.755 119.086C449.312 117.313 449.46 115.244 450.494 113.619C450.691 113.225 450.937 112.831 451.233 112.437C451.528 112.043 451.873 111.698 452.267 111.402C452.661 111.107 453.055 110.861 453.449 110.664C455.665 109.482 458.325 109.63 460.393 110.812C460.787 111.009 461.182 111.255 461.576 111.55C461.97 111.846 462.314 112.191 462.61 112.585C462.905 112.979 463.152 113.373 463.349 113.767C463.546 114.259 463.743 114.702 463.94 115.096C464.038 115.589 464.087 116.081 464.087 116.574C464.186 117.066 464.186 117.559 464.087 118.051C464.087 118.445 463.989 118.889 463.792 119.381C463.693 119.874 463.496 120.317 463.201 120.711C462.314 122.336 460.689 123.518 458.916 124.109Z" fill="#DCE9F4"/>
<path d="M588.201 87.1706L487.433 115.983C483.443 117.017 479.454 114.8 478.42 110.959C477.238 107.117 479.454 102.98 483.443 101.946L584.211 73.134C588.053 71.952 592.19 74.3159 593.224 78.1575C594.406 81.9991 592.042 85.9886 588.201 87.1706Z" fill="#DCE9F4"/>
<path d="M390.949 308.506C389.176 308.949 387.255 308.801 385.482 307.767C381.936 305.846 380.754 301.414 382.675 297.868L430.4 211.727C432.173 208.772 435.571 207.442 438.821 208.329L514.176 229.605L562.491 157.206C564.707 153.808 569.288 152.921 572.686 155.138C575.937 157.354 576.823 161.934 574.607 165.332L523.336 242.164C521.563 244.824 518.313 246.006 515.358 245.119L440.447 223.991L395.382 304.96C394.348 306.733 392.722 307.915 390.949 308.506Z" fill="#DCE9F4"/>
</svg>
